<?xml version="1.0" encoding="UTF-8"?>
<svg version="1.1" xmlns="http://www.w3.org/2000/svg" width="388" height="414">
<path d="M0 0 C79.53 0 159.06 0 241 0 C242 4 242 4 240.69140625 6.39453125 C240.13324219 7.25433594 239.57507813 8.11414063 239 9 C237.89877196 11.83340881 236.9353641 14.69383907 235.96484375 17.57421875 C235 20 235 20 233 22 C232.39434378 23.44094514 231.83881586 24.90322081 231.3125 26.375 C229.65875199 30.58621704 227.77915217 34.58231155 225.625 38.5625 C225.08101562 39.57441406 224.53703125 40.58632812 223.9765625 41.62890625 C221.39815385 44.72197749 219.93730442 44.56601892 216 45 C213.99668606 45.08071898 211.99105736 45.11369678 209.98612976 45.10679626 C208.21367386 45.10452278 208.21367386 45.10452278 206.40541077 45.10220337 C204.48129616 45.09209732 204.48129616 45.09209732 202.51831055 45.08178711 C201.14288442 45.07822763 199.76745699 45.07514256 198.39202881 45.07249451 C195.43736415 45.06595998 192.48273011 45.05641103 189.52808189 45.04459953 C184.84984886 45.02624985 180.1716231 45.0166923 175.49336243 45.00868225 C162.19256353 44.98457491 148.89180966 44.94871465 135.59106445 44.90405273 C128.23952252 44.87944501 120.88799826 44.86211897 113.53642112 44.85249335 C108.89243339 44.84597716 104.24859207 44.83047439 99.60465467 44.80817592 C96.70670294 44.79638487 93.80878602 44.79307499 90.91081238 44.79207802 C88.94091068 44.78893182 86.97103275 44.7757869 85.00117493 44.76226807 C78.33722462 44.76957076 72.4383461 45.25127034 66 47 C66.18175781 47.99966797 66.18175781 47.99966797 66.3671875 49.01953125 C67.578125 55.6796875 68.7890625 62.33984375 70 69 C67.03 69.99 64.06 70.98 61 72 C135.745 72.495 135.745 72.495 212 73 C213.21806115 77.87224462 211.92785541 79.66786294 209.5625 83.75 C208.81524568 85.08325815 208.07053817 86.4179463 207.328125 87.75390625 C206.94205078 88.44629395 206.55597656 89.13868164 206.15820312 89.85205078 C204.99489084 92.00947521 203.9158806 94.19083643 202.859375 96.40234375 C202.51575928 97.11874023 202.17214355 97.83513672 201.81811523 98.57324219 C201.16274133 99.95113441 200.51596522 101.33315929 199.87915039 102.71972656 C197.52478799 107.61420726 194.86052275 110.56973863 190 113 C188.65779739 113.09471465 187.31105347 113.12900077 185.96551514 113.13130188 C184.69965324 113.13731415 184.69965324 113.13731415 183.40821838 113.14344788 C182.48041061 113.14291916 181.55260284 113.14239044 180.59667969 113.1418457 C179.62091476 113.14532013 178.64514984 113.14879456 177.63981628 113.15237427 C175.51559777 113.15973907 173.39137151 113.16508058 171.26714325 113.16866493 C167.90477725 113.17581762 164.54255828 113.19147566 161.18023682 113.21000671 C151.61838814 113.26252981 142.0566187 113.31045291 132.49462891 113.32592773 C126.65017136 113.33600763 120.80608144 113.36533482 114.9617691 113.40724754 C112.73388703 113.41956439 110.50595303 113.42467756 108.27803802 113.42244911 C105.15859245 113.42009699 102.04020152 113.44225749 98.92089844 113.4699707 C98.00118759 113.46336929 97.08147675 113.45676788 96.13389587 113.44996643 C89.62621879 113.54484092 85.95794025 115.14405769 81.1875 119.75 C78.79325136 124.28647111 78.70935808 128.54679041 79.6875 133.4375 C80.69041195 136.10035749 80.69041195 136.10035749 82.70792007 136.6502676 C85.49273168 137.07518247 88.16741145 137.14115215 90.98577881 137.15821838 C92.2113298 137.1680072 93.4368808 137.17779602 94.6995697 137.18788147 C96.05459556 137.19378522 97.40962182 137.19959569 98.76464844 137.20532227 C100.19379457 137.21490411 101.62293788 137.22491437 103.05207825 137.23532104 C106.92979886 137.26234303 110.8075316 137.28336723 114.68529415 137.30332303 C118.73856248 137.32519928 122.79179351 137.35257995 126.84503174 137.37937927 C134.51951823 137.42928399 142.19402544 137.47423106 149.86855245 137.51740164 C158.60610937 137.56679299 167.34362886 137.62170408 176.08114958 137.67708123 C194.05406496 137.79086718 212.02701568 137.8977136 230 138 C230.99085297 141.45622207 230.92569225 142.93859127 229.41015625 146.23828125 C229.04148437 147.05192139 228.6728125 147.86556152 228.29296875 148.70385742 C227.88691406 149.56470947 227.48085938 150.42556152 227.0625 151.3125 C226.65515625 152.19591064 226.2478125 153.07932129 225.828125 153.98950195 C216.05796373 174.94203627 216.05796373 174.94203627 213 178 C211.22434493 178.10510338 209.44448806 178.13965974 207.66574097 178.14717102 C206.50806213 178.15432632 205.3503833 178.16148163 204.15762329 178.16885376 C202.87568085 178.17154266 201.5937384 178.17423157 200.27294922 178.17700195 C198.91784489 178.18326452 197.5627423 178.18991114 196.2076416 178.19691467 C191.74000251 178.21801039 187.27236291 178.22833316 182.8046875 178.23828125 C181.2643647 178.24232901 179.72404207 178.24644593 178.18371964 178.25063133 C170.93551458 178.26970772 163.68731978 178.28392453 156.43909442 178.2922433 C148.09649901 178.30197699 139.75417169 178.32818399 131.41167057 178.36874419 C124.95286852 178.39905626 118.49414252 178.41372701 112.03527081 178.41702431 C108.18433133 178.41936088 104.33367735 178.42813476 100.48281479 178.45348549 C96.84658085 178.47703166 93.21081478 178.48089503 89.57452393 178.47072411 C87.6295669 178.47000437 85.68463223 178.48891538 83.73977661 178.50878906 C73.57688428 178.44984165 60.63381854 177.33498296 52.484375 170.55078125 C46.26525696 164.05343951 41.35405931 157.2029779 39.09765625 148.44140625 C38.76443359 147.16716797 38.43121094 145.89292969 38.08789062 144.58007812 C37.74573903 143.240976 37.4039432 141.90178293 37.0625 140.5625 C36.38950896 137.95890839 35.71235219 135.35640684 35.03515625 132.75390625 C34.78369843 131.78281166 34.78369843 131.78281166 34.52716064 130.792099 C33.0947935 125.28785052 31.53588588 119.82445345 29.95776367 114.3605957 C28.73880141 110.0835079 27.59920634 105.78762655 26.46362305 101.48779297 C23.85863991 91.6245002 21.1339855 81.83246727 17.95361328 72.13793945 C16.84148253 68.73915172 15.80863406 65.35708713 14.95703125 61.8828125 C14.09094599 58.36898086 13.09265632 54.9486965 12 51.5 C10.71586336 47.44694373 9.57027611 43.39235152 8.55810547 39.26269531 C7.43424447 34.70628948 6.24261191 30.16709318 5.0625 25.625 C4.81048828 24.64789063 4.55847656 23.67078125 4.29882812 22.6640625 C2.85206355 17.09901411 1.29154048 11.61837069 -0.54907227 6.16943359 C-1 4 -1 4 0 0 Z " fill="#CC984A" transform="translate(112,151)"/>
<path d="M0 0 C0.93730453 -0.0038269 1.87460907 -0.00765381 2.84031677 -0.01159668 C4.82137121 -0.01431202 6.80246172 -0.00697737 8.78344727 0.00976562 C11.77509344 0.03101208 14.76429163 0.01003887 17.75585938 -0.015625 C31.09169723 -0.03580035 43.07906953 0.50965959 53.953125 9.1640625 C55.24609375 10.53125 55.24609375 10.53125 55.24609375 12.53125 C56.23609375 12.86125 57.22609375 13.19125 58.24609375 13.53125 C63.71799941 21.02352363 65.96146324 29.65618322 68.12109375 38.53125 C68.79466743 41.19461976 69.4794709 43.85506905 70.1640625 46.515625 C70.42039207 47.51985504 70.42039207 47.51985504 70.68190002 48.54437256 C72.42741865 55.3412113 74.41006328 62.062343 76.43359375 68.78125 C77.1057743 71.02334592 77.77765971 73.26553035 78.44921875 75.5078125 C78.91618164 77.06677246 78.91618164 77.06677246 79.39257812 78.65722656 C82.02352751 87.51636162 84.40963612 96.44462891 86.82756042 105.36364746 C87.62062836 108.28774403 88.41511443 111.21145489 89.20950317 114.13519287 C89.7912674 116.27987612 90.37025072 118.42529547 90.94897461 120.57080078 C92.97195015 128.04209873 95.09740433 135.4607612 97.43554688 142.84155273 C98.13091324 145.14903803 98.70475386 147.42129667 99.18359375 149.78125 C100.20156386 154.66048603 101.64120226 159.40570509 103.08007812 164.17333984 C104.43773138 168.69852651 105.71142829 173.23667562 106.91796875 177.8046875 C107.21034424 178.89587891 107.50271973 179.98707031 107.80395508 181.11132812 C108.37498446 183.25027137 108.93536011 185.39209789 109.4831543 187.53710938 C111.45784766 194.86548105 114.43326672 200.99362851 118.24609375 207.53125 C118.59808838 208.27165527 118.95008301 209.01206055 119.31274414 209.77490234 C120.55917073 212.12038832 121.8242658 212.5170549 124.24609375 213.53125 C124.98085937 213.9334375 125.715625 214.335625 126.47265625 214.75 C127.26414063 215.1728125 128.055625 215.595625 128.87109375 216.03125 C129.64710938 216.4540625 130.423125 216.876875 131.22265625 217.3125 C140.05658585 220.87346387 149.20059265 220.83460444 158.60009766 220.85009766 C160.02027953 220.85941438 161.44045602 220.8695856 162.86062622 220.88053894 C166.68634697 220.90765663 170.51203127 220.92293373 174.33782244 220.93596697 C178.3470324 220.951678 182.35616881 220.97844247 186.36532593 221.0039978 C193.94398205 221.05064524 201.52265223 221.08745693 209.10137784 221.12067068 C217.7351066 221.15899169 226.36876123 221.20837546 235.00242734 221.25865483 C252.75026177 221.36176575 270.49814154 221.45109342 288.24609375 221.53125 C288.57609375 222.52125 288.90609375 223.51125 289.24609375 224.53125 C288.58609375 225.52125 287.92609375 226.51125 287.24609375 227.53125 C286.60361306 229.58213814 286.00441931 231.64677466 285.43359375 233.71875 C281.80268863 245.52249248 281.80268863 245.52249248 278.24609375 248.53125 C274.67313192 249.71586836 271.85462803 249.52110919 268.24609375 248.53125 C265.47097598 246.94605057 263.01067174 245.16743776 260.4765625 243.22265625 C254.69721988 238.84007244 248.22685807 238.90387746 241.24609375 239.53125 C236.52269126 240.52609052 233.43663082 242.32570345 229.95019531 245.60742188 C224.02290995 250.09379951 217.28181844 249.3185255 210.16796875 249.1875 C208.70925682 249.18137404 207.25053313 249.17763 205.79180908 249.17614746 C202.74876459 249.1669847 199.7067916 249.13829947 196.6640625 249.09375 C192.76792615 249.03698537 188.8726269 249.0153022 184.97611618 249.0063858 C181.97002852 248.99806905 178.96410883 248.97843063 175.95810699 248.95463562 C174.52122578 248.94326367 173.08432873 248.93373532 171.64742279 248.92610168 C169.6421285 248.91232905 167.63695689 248.88326177 165.63183594 248.85351562 C164.49236511 248.83985962 163.35289429 248.82620361 162.17889404 248.81213379 C159.33772316 248.54002565 157.65654334 248.00661535 155.24609375 246.53125 C155.24609375 245.87125 155.24609375 245.21125 155.24609375 244.53125 C153.58303535 243.85563252 151.9151477 243.19191719 150.24609375 242.53125 C148.45171875 241.726875 148.45171875 241.726875 146.62109375 240.90625 C139.61696512 238.31604394 132.04828461 238.60407996 125.1796875 241.46484375 C122.97936745 242.67835359 121.15646433 244.16470111 119.18359375 245.71875 C113.91288657 249.42024489 108.68610244 249.17028036 102.50390625 249.1328125 C99.24609375 248.53125 99.24609375 248.53125 97.38671875 246.7734375 C96.23316777 244.5058407 95.48795897 242.49871088 94.87109375 240.03125 C94.62359375 239.06574219 94.37609375 238.10023438 94.12109375 237.10546875 C93.64923744 235.17801999 93.17757255 233.25052411 92.70703125 231.32275391 C90.41728034 221.95576456 88.08308383 212.66196014 85.12597656 203.48095703 C82.3177601 194.73228265 79.94293589 185.85622907 77.5625 176.9831543 C75.6637276 169.93954639 73.59692503 162.95437409 71.49609375 155.96875 C67.08529547 141.19646643 63.06911358 126.32797221 59.16796875 111.4140625 C56.09433316 99.71861862 52.65673896 88.13202414 49.24609375 76.53125 C47.97316057 72.19852937 46.70275916 67.86507559 45.43359375 63.53125 C45.14379639 62.54713135 44.85399902 61.5630127 44.55541992 60.54907227 C42.99864434 55.2331078 41.55822006 49.91270197 40.24609375 44.53125 C38.38859009 37.23391418 36.79718119 31.89864163 30.24609375 27.53125 C27.74588164 27.40743138 25.36114881 27.39471056 22.8671875 27.4765625 C21.37305666 27.50188587 19.87891548 27.52660546 18.38476562 27.55078125 C16.04353124 27.60008067 13.70284484 27.65569528 11.36206055 27.72314453 C-8.45061544 28.25788257 -8.45061544 28.25788257 -15.46704102 22.00439453 C-18.52084489 18.50853937 -17.98606652 13.94229517 -17.75390625 9.53125 C-16.934953 6.00975104 -16.04614987 4.78041916 -13.27758789 2.41992188 C-8.6816367 -0.04347994 -5.13109172 -0.04664444 0 0 Z " fill="#FCFCFC" transform="translate(32.75390625,118.46875)"/>
<path d="M0 0 C0.72316406 0.16371094 1.44632812 0.32742188 2.19140625 0.49609375 C2.47113281 1.01816406 2.75085938 1.54023438 3.0390625 2.078125 C6.00572292 7.52495169 9.22648591 12.73998397 12.640625 17.91796875 C14.12713892 20.38925134 15.20411595 22.79198828 16.19140625 25.49609375 C16.85140625 25.49609375 17.51140625 25.49609375 18.19140625 25.49609375 C19.14815722 28.42127974 19.63140767 30.5465915 18.30419922 33.41064453 C16.50408626 36.23268583 14.57044992 38.9434029 12.61914062 41.66210938 C11.31548991 43.5766759 10.13329338 45.37936727 9.19140625 47.49609375 C9.57332366 50.22181687 9.57332366 50.22181687 11.19140625 52.49609375 C11.58457031 53.36105469 11.97773438 54.22601563 12.3828125 55.1171875 C18.68893729 68.07079427 26.2434068 83.38096338 40.12890625 89.55859375 C49.24976536 92.23258056 57.79241628 90.54180441 66.19140625 86.49609375 C74.54590851 81.84490647 80.6614751 76.43184934 86.76171875 69.14453125 C88.17265977 67.51770855 89.65105289 65.99998904 91.19140625 64.49609375 C90.67578125 63.62984375 90.16015625 62.76359375 89.62890625 61.87109375 C87.97710362 57.99294844 87.9230358 56.47032114 89.19140625 52.49609375 C90.79107316 49.4967183 91.98403683 47.91155737 95.24609375 46.7890625 C98.47377358 46.20764543 101.02422238 45.98756966 104.07421875 47.31640625 C107.04605899 49.48427039 108.18471966 51.47566251 109.31640625 54.93359375 C109.15691123 59.47920189 108.25007472 61.1390186 105.19140625 64.49609375 C103.15215149 65.50566563 101.15825838 66.34093852 98.99609375 67.05078125 C96.02680224 69.42878527 95.93010982 72.93309614 95.19140625 76.49609375 C94.64973051 78.62247007 94.09669175 80.74596928 93.53515625 82.8671875 C93.23480469 84.01896484 92.93445313 85.17074219 92.625 86.35742188 C92.00355882 88.73787963 91.38116582 91.11808912 90.7578125 93.49804688 C89.27491749 99.19096357 87.8509385 104.88018545 86.60742188 110.63012695 C86.06260426 113.07381301 85.40574338 115.47185274 84.69140625 117.87109375 C84.335625 119.08925781 84.335625 119.08925781 83.97265625 120.33203125 C83.19140625 122.49609375 83.19140625 122.49609375 81.19140625 125.49609375 C78.43650055 125.88364792 78.43650055 125.88364792 74.85217285 125.90155029 C74.1944232 125.90890269 73.53667356 125.91625508 72.8589921 125.92383027 C70.64478628 125.94490154 68.43109557 125.9445356 66.21679688 125.94433594 C64.63355114 125.95498406 63.05031368 125.96693202 61.46708679 125.98008728 C57.15935047 126.01203896 52.85173398 126.02534767 48.54389763 126.03513622 C44.04308352 126.048211 39.54237281 126.07735267 35.04162598 126.10455322 C27.48236156 126.14790051 19.92311713 126.17999568 12.36376953 126.20458984 C2.65155376 126.23624886 -7.06047349 126.28644484 -16.77257538 126.34251022 C-25.10964134 126.39048185 -33.44674474 126.42984228 -41.78386116 126.46786594 C-44.4698193 126.48049214 -47.15576927 126.49432559 -49.84172058 126.50832367 C-54.05724946 126.52975378 -58.27276641 126.54582361 -62.48833275 126.55768013 C-64.03878126 126.5628025 -65.58922515 126.56964499 -67.13965797 126.57829857 C-69.24957549 126.58975282 -71.35941693 126.5950033 -73.46936035 126.59857178 C-74.65218849 126.60297146 -75.83501663 126.60737114 -77.05368805 126.61190414 C-79.80859375 126.49609375 -79.80859375 126.49609375 -81.80859375 125.49609375 C-82.65893555 123.10131836 -82.65893555 123.10131836 -83.5078125 119.8984375 C-83.8267749 118.71507812 -84.1457373 117.53171875 -84.47436523 116.3125 C-84.81495396 115.01953456 -85.15552985 113.72656573 -85.49609375 112.43359375 C-86.20597259 109.78546748 -86.92144963 107.13886215 -87.63671875 104.4921875 C-87.81690048 103.82250946 -87.99708221 103.15283142 -88.182724 102.46286011 C-90.21344752 94.93983254 -92.41568907 87.46830866 -94.63745117 79.99975586 C-94.90920166 79.08073486 -95.18095215 78.16171387 -95.4609375 77.21484375 C-95.69804443 76.42013672 -95.93515137 75.62542969 -96.17944336 74.80664062 C-96.83869253 72.38555635 -97.34378464 69.96124693 -97.80859375 67.49609375 C-98.90171875 67.39296875 -99.99484375 67.28984375 -101.12109375 67.18359375 C-105.6092835 66.34681261 -105.6092835 66.34681261 -107.80859375 63.49609375 C-109.02546649 59.86621767 -109.56094432 56.17068049 -107.9609375 52.609375 C-105.93111293 49.91382018 -104.02228672 48.57338695 -100.87109375 47.43359375 C-96.24738381 47.52795518 -93.28613214 49.11705792 -89.93359375 52.24609375 C-88.32100613 55.47126898 -88.49618024 57.93457976 -88.80859375 61.49609375 C-89.80859375 64.43359375 -89.80859375 64.43359375 -90.80859375 66.49609375 C-90.31359375 66.94984375 -89.81859375 67.40359375 -89.30859375 67.87109375 C-87.80859375 69.49609375 -87.80859375 69.49609375 -87.80859375 71.49609375 C-87.2671875 71.73328125 -86.72578125 71.97046875 -86.16796875 72.21484375 C-83.17609238 73.83957132 -80.69699976 75.84628145 -78.05859375 77.99609375 C-77.07375 78.79015625 -76.08890625 79.58421875 -75.07421875 80.40234375 C-74.3265625 81.09328125 -73.57890625 81.78421875 -72.80859375 82.49609375 C-72.80859375 83.15609375 -72.80859375 83.81609375 -72.80859375 84.49609375 C-71.9578125 84.68171875 -71.9578125 84.68171875 -71.08984375 84.87109375 C-67.89564775 85.74621594 -65.02300225 87.16335554 -62.02734375 88.55859375 C-53.02241681 92.36349246 -43.72444964 90.74525598 -34.80859375 87.49609375 C-34.80859375 86.83609375 -34.80859375 86.17609375 -34.80859375 85.49609375 C-33.15326752 84.47743146 -31.48599237 83.47798562 -29.80859375 82.49609375 C-29.47859375 81.83609375 -29.14859375 81.17609375 -28.80859375 80.49609375 C-28.14859375 80.49609375 -27.48859375 80.49609375 -26.80859375 80.49609375 C-26.31359375 78.51609375 -26.31359375 78.51609375 -25.80859375 76.49609375 C-25.14859375 76.49609375 -24.48859375 76.49609375 -23.80859375 76.49609375 C-23.55851562 75.80128906 -23.3084375 75.10648437 -23.05078125 74.390625 C-21.63299128 71.08690686 -19.85991255 68.2184545 -17.93359375 65.18359375 C-16.55261384 62.95807347 -15.18114845 60.72683353 -13.80859375 58.49609375 C-13.09123047 57.3359375 -13.09123047 57.3359375 -12.359375 56.15234375 C-9.49766387 51.09163355 -9.63303159 47.98205047 -10.80859375 42.49609375 C-11.46859375 42.49609375 -12.12859375 42.49609375 -12.80859375 42.49609375 C-16.80859375 35.74609375 -16.80859375 35.74609375 -16.80859375 33.49609375 C-17.46859375 33.49609375 -18.12859375 33.49609375 -18.80859375 33.49609375 C-19.55131548 27.67810688 -18.20558045 25.03284762 -14.7890625 20.3828125 C-13.15646454 18.00314801 -11.75014251 15.66162613 -10.359375 13.140625 C-9.71331299 11.98119385 -9.71331299 11.98119385 -9.05419922 10.79833984 C-8.18918281 9.23459424 -7.33765296 7.66330419 -6.50048828 6.08447266 C-3.42474619 0.60492735 -3.42474619 0.60492735 0 0 Z " fill="#C39148" transform="translate(225.80859375,12.50390625)"/>
<path d="M0 0 C2.1584478 1.20027429 4.20697485 2.44977073 6.22265625 3.875 C6.22265625 4.535 6.22265625 5.195 6.22265625 5.875 C7.21265625 6.205 8.20265625 6.535 9.22265625 6.875 C12.81649816 11.66678921 12.84431052 16.83208453 12.69921875 22.609375 C11.84112758 28.48940959 9.03358205 32.41971444 4.6171875 36.27734375 C-0.00941102 39.36540594 -5.29528001 40.0987577 -10.77734375 39.875 C-16.89602823 38.55379733 -22.88286174 35.48807864 -26.58984375 30.375 C-29.40321799 24.45210686 -29.2706322 18.68674415 -28.15234375 12.3125 C-25.99196705 6.91155825 -22.8064291 3.37265823 -18.15234375 -0.0625 C-12.14289756 -1.95436269 -5.92166533 -2.39864925 0 0 Z " fill="#FDFDFE" transform="translate(287.77734375,366.125)"/>
<path d="M0 0 C6.00563032 3.85388042 8.86303233 8.19913719 10.703125 15.05859375 C11.36153157 20.10399195 10.32062025 24.28933275 8.0625 28.8125 C4.00183032 33.9022435 -1.47410548 37.65396702 -7.9375 38.8125 C-14.02061619 39.05456172 -19.16796116 37.62585444 -23.9375 33.8125 C-28.59303908 29.19899739 -31.0733607 25.72343693 -31.125 19 C-31.01376827 12.02273693 -29.35119342 7.49456593 -24.625 2.359375 C-17.8932946 -3.81135495 -7.84651853 -4.09776997 0 0 Z " fill="#FDFDFD" transform="translate(179.9375,367.1875)"/>
<path d="M0 0 C2.09715785 3.14573677 2.52004559 5.01456251 3.125 8.6875 C3.29257813 9.68136719 3.46015625 10.67523438 3.6328125 11.69921875 C3.75398438 12.45847656 3.87515625 13.21773437 4 14 C1.03 14.99 -1.94 15.98 -5 17 C69.745 17.495 69.745 17.495 146 18 C147.21806115 22.87224462 145.92785541 24.66786294 143.5625 28.75 C142.81524568 30.08325815 142.07053817 31.4179463 141.328125 32.75390625 C140.74901367 33.79248779 140.74901367 33.79248779 140.15820312 34.85205078 C138.99489084 37.00947521 137.9158806 39.19083643 136.859375 41.40234375 C136.51575928 42.11874023 136.17214355 42.83513672 135.81811523 43.57324219 C135.16274133 44.95113441 134.51596522 46.33315929 133.87915039 47.71972656 C131.52478799 52.61420726 128.86052275 55.56973863 124 58 C122.65779739 58.09471465 121.31105347 58.12900077 119.96551514 58.13130188 C118.69965324 58.13731415 118.69965324 58.13731415 117.40821838 58.14344788 C116.48041061 58.14291916 115.55260284 58.14239044 114.59667969 58.1418457 C113.62091476 58.14532013 112.64514984 58.14879456 111.63981628 58.15237427 C109.51559777 58.15973907 107.39137151 58.16508058 105.26714325 58.16866493 C101.90477725 58.17581762 98.54255828 58.19147566 95.18023682 58.21000671 C85.61838814 58.26252981 76.0566187 58.31045291 66.49462891 58.32592773 C60.65017136 58.33600763 54.80608144 58.36533482 48.9617691 58.40724754 C46.73388703 58.41956439 44.50595303 58.42467756 42.27803802 58.42244911 C39.15859245 58.42009699 36.04020152 58.44225749 32.92089844 58.4699707 C32.00118759 58.46336929 31.08147675 58.45676788 30.13389587 58.44996643 C23.62621879 58.54484092 19.95794025 60.14405769 15.1875 64.75 C12.74269533 69.38226147 12.62035955 73.58267565 13.9375 78.5 C14.4634375 79.7375 14.4634375 79.7375 15 81 C13 79.625 13 79.625 11 77 C10.12567105 72.09030665 10.4263475 68.16936857 12.625 63.6875 C19.6104988 55.78285663 19.6104988 55.78285663 25.74569702 55.36076355 C27.63407805 55.32869264 29.52304248 55.32377534 31.41162109 55.34057617 C32.44637573 55.33009247 33.48113037 55.31960876 34.54724121 55.30880737 C37.95627925 55.28008156 41.36430023 55.2863464 44.7734375 55.29296875 C47.14142122 55.27985231 49.50939375 55.26454826 51.87734985 55.24714661 C58.10148006 55.20727802 64.3253177 55.19710488 70.54956055 55.19311523 C76.9042245 55.18378744 83.25871631 55.146376 89.61328125 55.11132812 C102.07551278 55.04673308 114.53761571 55.01350861 127 55 C128.555779 51.89810538 130.07115323 48.78003075 131.56640625 45.6484375 C132.05173828 44.63265625 132.53707031 43.616875 133.03710938 42.5703125 C133.54048828 41.51585937 134.04386719 40.46140625 134.5625 39.375 C135.56364639 37.27857147 136.56494096 35.18221371 137.56640625 33.0859375 C138.00927979 32.1582959 138.45215332 31.2306543 138.90844727 30.27490234 C139.59471811 28.84464697 140.29054978 27.41890045 141 26 C141.66 26 142.32 26 143 26 C143.144375 25.21625 143.28875 24.4325 143.4375 23.625 C144 21 144 21 145 19 C90.55 19 36.1 19 -20 19 C-20 18.34 -20 17.68 -20 17 C-17.45953542 16.49311395 -14.91791124 15.99433126 -12.375 15.5 C-11.66214844 15.35691406 -10.94929687 15.21382812 -10.21484375 15.06640625 C-6.07855065 14.26950574 -2.23566321 13.83965944 2 14 C1.855625 13.32453125 1.71125 12.6490625 1.5625 11.953125 C1.376875 11.06109375 1.19125 10.1690625 1 9.25 C0.814375 8.36828125 0.62875 7.4865625 0.4375 6.578125 C0 4 0 4 0 0 Z " fill="#F4ECE0" transform="translate(178,206)"/>
<path d="M0 0 C1.16295337 3.48886011 0.87165479 3.93549082 -0.58984375 7.140625 C-0.95851563 7.95748779 -1.3271875 8.77435059 -1.70703125 9.6159668 C-2.11308594 10.48519775 -2.51914062 11.35442871 -2.9375 12.25 C-3.34484375 13.13792236 -3.7521875 14.02584473 -4.171875 14.94067383 C-13.89266677 35.89266677 -13.89266677 35.89266677 -17 39 C-18.78470569 39.10293342 -20.5735116 39.13521411 -22.36117554 39.14044189 C-23.52463501 39.14615204 -24.68809448 39.15186218 -25.8868103 39.15774536 C-27.17503693 39.15886322 -28.46326355 39.15998108 -29.79052734 39.16113281 C-31.15212133 39.16575908 -32.51371402 39.17078347 -33.87530518 39.17617798 C-37.58660948 39.18933255 -41.29789566 39.19575421 -45.00921965 39.20018864 C-47.3301604 39.20311771 -49.65109619 39.20722246 -51.97203445 39.21169281 C-59.23945607 39.22538296 -66.50686636 39.23503912 -73.77429998 39.2388947 C-82.15084635 39.24336316 -90.52722855 39.26084798 -98.90372503 39.2898953 C-105.38284776 39.31157819 -111.86192457 39.32160268 -118.34108317 39.32293582 C-122.20748805 39.3239802 -126.07373892 39.32980794 -129.94010544 39.34775543 C-133.58612032 39.36434805 -137.2318674 39.36633799 -140.8779068 39.35761642 C-142.83792585 39.35648991 -144.79793644 39.37012529 -146.75790405 39.3843689 C-154.29615218 39.34913927 -160.84698853 38.40936886 -168 36 C-164.60315193 34.86771731 -163.42240336 35.27160027 -160 36 C-157.99165123 36.09776578 -155.98058341 36.14586121 -153.96989441 36.15821838 C-152.15474838 36.17290161 -152.15474838 36.17290161 -150.30293274 36.18788147 C-148.32416389 36.19651466 -148.32416389 36.19651466 -146.30541992 36.20532227 C-144.89583045 36.21490719 -143.48624382 36.22491763 -142.07666016 36.23532104 C-138.25684832 36.26230964 -134.4370242 36.28335185 -130.6171701 36.30332303 C-126.62263116 36.32521996 -122.6281298 36.35259049 -118.63362122 36.37937927 C-111.0724993 36.42925609 -103.51135646 36.47421347 -95.9501937 36.51740164 C-87.34078508 36.56681688 -78.73141418 36.62171909 -70.12204206 36.67708123 C-52.41472975 36.79082433 -34.70738182 36.89768003 -17 37 C-16.86118408 36.22744873 -16.72236816 35.45489746 -16.5793457 34.65893555 C-15.91741305 31.62096312 -14.7519222 29.49380083 -13.1875 26.8125 C-11.18837519 23.2653593 -9.43947885 19.80824151 -8 16 C-5.86512679 10.37334263 -2.97662721 5.2190197 0 0 Z " fill="#F7F4EC" transform="translate(342,290)"/>
<path d="M0 0 C4.08787651 -0.48665196 5.76152463 -0.14848467 9.3125 2.0625 C12.53289137 5.58246266 13.16653727 7.25368766 13 12 C11.04952446 16.3249675 9.12773997 18.10108843 4.875 19.875 C3.85019531 20.21144531 3.85019531 20.21144531 2.8046875 20.5546875 C-0.16460401 22.93269152 -0.26129643 26.43700239 -1 30 C-1.54167574 32.12637632 -2.0947145 34.24987553 -2.65625 36.37109375 C-2.95660156 37.52287109 -3.25695312 38.67464844 -3.56640625 39.86132812 C-4.18784743 42.24178588 -4.81024043 44.62199537 -5.43359375 47.00195312 C-6.91648876 52.69486982 -8.34046775 58.3840917 -9.58398438 64.1340332 C-10.12880199 66.57771926 -10.78566287 68.97575899 -11.5 71.375 C-11.85578125 72.59316406 -11.85578125 72.59316406 -12.21875 73.8359375 C-13 76 -13 76 -15 79 C-17.7549057 79.39034748 -17.7549057 79.39034748 -21.3392334 79.41218567 C-21.99698305 79.42024363 -22.65473269 79.42830159 -23.33241415 79.43660372 C-25.54660545 79.46002507 -27.7603026 79.46199564 -29.97460938 79.46411133 C-31.55785631 79.47639575 -33.14109371 79.4899659 -34.72431946 79.50473022 C-39.0320438 79.54096445 -43.3396607 79.55838275 -47.64750862 79.57197404 C-52.14832537 79.58876247 -56.64903554 79.62084287 -61.14978027 79.65080261 C-68.70903863 79.69872942 -76.26828242 79.73470994 -83.82763672 79.76342773 C-92.57667867 79.79678842 -101.32547931 79.84781661 -110.07437086 79.90858442 C-118.47847933 79.96664585 -126.88261191 80.01331917 -135.28681946 80.05438805 C-138.8689529 80.07203001 -142.45103367 80.09349728 -146.03312683 80.11795998 C-150.24866185 80.1461546 -154.46412355 80.16434582 -158.679739 80.17469406 C-160.23019692 80.18009256 -161.78064708 80.18893731 -163.33106422 80.20141029 C-165.44105782 80.21781002 -167.55071798 80.22190487 -169.6607666 80.22273254 C-171.43500881 80.23071476 -171.43500881 80.23071476 -173.2450943 80.23885822 C-176 80 -176 80 -178 78 C-124.54 77.67 -71.08 77.34 -16 77 C-11.0760652 59.11504839 -11.0760652 59.11504839 -7.0625 41 C-6.12635938 36.08922845 -4.56784627 31.4691202 -2.90234375 26.76171875 C-2.05919934 24.18118586 -1.47183474 21.67048736 -1 19 C0.3303125 18.6596875 0.3303125 18.6596875 1.6875 18.3125 C5.55661931 16.77945273 7.45904238 15.2882981 10 12 C10.83349951 8.95659873 10.83349951 8.95659873 10 6 C6.95617461 2.78224173 4.38104998 1.50069143 0 1 C0 0.67 0 0.34 0 0 Z " fill="#FEFDFD" transform="translate(322,59)"/>
<path d="M0 0 C1.9960879 3.59295822 2.06996274 5.75279805 1.5625 9.8125 C0.3125 12.6875 0.3125 12.6875 -1.4375 14.8125 C-3.625 15.625 -3.625 15.625 -5.4375 15.8125 C-5.4375 17.4625 -5.4375 19.1125 -5.4375 20.8125 C-7.4375 17.8125 -7.4375 17.8125 -7.4375 15.8125 C-8.530625 15.709375 -9.62375 15.60625 -10.75 15.5 C-15.23818975 14.66321886 -15.23818975 14.66321886 -17.4375 11.8125 C-18.65757534 8.17307072 -19.23732848 4.45640278 -17.51953125 0.92578125 C-15.81317553 -1.2426031 -14.00107677 -2.88692572 -11.5625 -4.1875 C-6.9070875 -4.1875 -3.46726025 -3.11164381 0 0 Z " fill="#D7A85F" transform="translate(135.4375,64.1875)"/>
<path d="M0 0 C1.30230734 3.00646952 0.96485975 4.09355667 -0.21484375 7.234375 C-0.78332031 8.39453125 -1.35179687 9.5546875 -1.9375 10.75 C-2.50339844 11.92046875 -3.06929687 13.0909375 -3.65234375 14.296875 C-4.09707031 15.18890625 -4.54179687 16.0809375 -5 17 C-22.49818754 17.02336883 -39.9963702 17.04099876 -57.49456978 17.05181217 C-65.61943204 17.05696665 -73.74428459 17.06399322 -81.86914062 17.07543945 C-88.95143384 17.08541217 -96.03372004 17.0918596 -103.11602008 17.09408849 C-106.86541226 17.0953912 -110.61478434 17.09844924 -114.36417007 17.10573006 C-118.5515456 17.11379531 -122.73888626 17.11398947 -126.92626953 17.11352539 C-128.16704758 17.11712067 -129.40782562 17.12071594 -130.686203 17.12442017 C-131.83036179 17.1230455 -132.97452057 17.12167084 -134.15335083 17.12025452 C-135.14335649 17.12117631 -136.13336216 17.1220981 -137.153368 17.12304783 C-140.16984148 16.99265847 -143.03449953 16.55434238 -146 16 C-146 15.67 -146 15.34 -146 15 C-100.13 14.67 -54.26 14.34 -7 14 C-4.84158921 9.71304704 -4.84158921 9.71304704 -2.9375 5.3125 C-2 3 -2 3 0 0 Z " fill="#BA8643" transform="translate(330,310)"/>
<path d="M0 0 C0.33 0.99 0.66 1.98 1 3 C0.04885635 4.69502317 -0.95930245 6.35843782 -2 8 C-3.10122804 10.83340881 -4.0646359 13.69383907 -5.03515625 16.57421875 C-6 19 -6 19 -8 21 C-8.60565622 22.44094514 -9.16118414 23.90322081 -9.6875 25.375 C-11.34124801 29.58621704 -13.22084783 33.58231155 -15.375 37.5625 C-15.91898438 38.57441406 -16.46296875 39.58632812 -17.0234375 40.62890625 C-19.60184615 43.72197749 -21.06269558 43.56601892 -25 44 C-27.00331394 44.08071898 -29.00894264 44.11369678 -31.01387024 44.10679626 C-32.78632614 44.10452278 -32.78632614 44.10452278 -34.59458923 44.10220337 C-36.51870384 44.09209732 -36.51870384 44.09209732 -38.48168945 44.08178711 C-39.85711558 44.07822763 -41.23254301 44.07514256 -42.60797119 44.07249451 C-45.56263585 44.06595998 -48.51726989 44.05641103 -51.47191811 44.04459953 C-56.15015114 44.02624985 -60.8283769 44.0166923 -65.50663757 44.00868225 C-78.80743647 43.98457491 -92.10819034 43.94871465 -105.40893555 43.90405273 C-112.76047748 43.87944501 -120.11200174 43.86211897 -127.46357888 43.85249335 C-132.10756661 43.84597716 -136.75140793 43.83047439 -141.39534533 43.80817592 C-144.29329706 43.79638487 -147.19121398 43.79307499 -150.08918762 43.79207802 C-152.05908932 43.78893182 -154.02896725 43.7757869 -155.99882507 43.76226807 C-162.66277538 43.76957076 -168.5616539 44.25127034 -175 46 C-175 48.64 -175 51.28 -175 54 C-177.16551116 50.75173326 -177.55156953 49.76905843 -177 46 C-174.8469524 43.19419728 -173.65558439 42.11615763 -170.13396835 41.49219131 C-168.45814871 41.48666056 -168.45814871 41.48666056 -166.74847412 41.48101807 C-164.82179901 41.46014885 -164.82179901 41.46014885 -162.85620117 41.43885803 C-161.43505732 41.443571 -160.0139147 41.44866495 -158.59277344 41.45410156 C-157.0946546 41.44536652 -155.5965451 41.43488098 -154.09844971 41.42277527 C-150.03262647 41.39488572 -145.96710721 41.39151122 -141.9012022 41.39249516 C-137.65169636 41.38936857 -133.40232793 41.36375571 -129.15289307 41.34051514 C-121.10652034 41.29993201 -113.06022871 41.27960902 -105.01376939 41.26654124 C-95.85295587 41.25067901 -86.69228051 41.21226669 -77.53154707 41.17194796 C-58.68774171 41.08951739 -39.84394936 41.03544503 -21 41 C-20.67 40.34 -20.34 39.68 -20 39 C-19.34 39 -18.68 39 -18 39 C-17.83177734 38.21302734 -17.83177734 38.21302734 -17.66015625 37.41015625 C-15.88628065 30.44218738 -12.78750319 24.48385057 -9.31274414 18.24243164 C-6.74523582 13.59359929 -4.8185807 8.98902671 -3 4 C-1.3125 1.5 -1.3125 1.5 0 0 Z " fill="#EBE0D1" transform="translate(353,152)"/>
<path d="M0 0 C76.23 0 152.46 0 231 0 C231 0.33 231 0.66 231 1 C205.07697154 1.13111817 179.15393966 1.2615396 153.23090363 1.39115143 C141.19202003 1.4513602 129.15313761 1.51178946 117.11425781 1.57275391 C106.61043439 1.62594431 96.1066089 1.67870458 85.60278082 1.73096704 C80.05088487 1.75860538 74.49899011 1.78644638 68.94709778 1.81480408 C58.07706009 1.87021008 47.20702451 1.92348876 36.33693647 1.96810198 C32.46958588 1.98413654 28.60226634 2.00146768 24.73495483 2.02523804 C21.24973836 2.04640181 17.76454796 2.06218299 14.27929688 2.07617188 C12.86602489 2.0875053 12.86602489 2.0875053 11.42420197 2.09906769 C8.02498869 2.10754715 5.2484082 2.08280273 2 1 C1.67 2.98 1.34 4.96 1 7 C0.34 6.01 -0.32 5.02 -1 4 C-0.67 2.68 -0.34 1.36 0 0 Z " fill="#EBCE96" transform="translate(112,151)"/>
<path d="M0 0 C3.80529659 0.90394019 5.46618207 2.52556251 8.0390625 5.484375 C8.6640625 8.484375 8.6640625 8.484375 8.0390625 11.484375 C6.23912476 14.18428162 4.9552895 16.0262615 2.0390625 17.484375 C0.33203515 17.55433514 -1.37761753 17.56877654 -3.0859375 17.546875 C-3.99601562 17.53785156 -4.90609375 17.52882813 -5.84375 17.51953125 C-6.89175781 17.50212891 -6.89175781 17.50212891 -7.9609375 17.484375 C-9.86508648 14.28540471 -10.975252 12.18578534 -10.8984375 8.421875 C-8.98775129 2.43505822 -6.67809306 -0.45020852 0 0 Z " fill="#B38243" transform="translate(324.9609375,59.515625)"/>
<path d="M0 0 C34.32 0 68.64 0 104 0 C103.15305079 5.08169526 102.46405567 7.52023302 100.0625 11.8125 C99.53785156 12.76769531 99.01320313 13.72289062 98.47265625 14.70703125 C97 17 97 17 95 18 C96.62512841 12.71833268 98.71023826 8.15196391 101 3 C67.67 2.67 34.34 2.34 0 2 C0 1.34 0 0.68 0 0 Z " fill="#B17D39" transform="translate(237,290)"/>
<path d="M0 0 C2.09715785 3.14573677 2.52004559 5.01456251 3.125 8.6875 C3.29257813 9.68136719 3.46015625 10.67523438 3.6328125 11.69921875 C3.75398438 12.45847656 3.87515625 13.21773437 4 14 C1.03 14.99 -1.94 15.98 -5 17 C69.745 17.495 69.745 17.495 146 18 C145.67 18.66 145.34 19.32 145 20 C63.325 19.505 63.325 19.505 -20 19 C-20 18.34 -20 17.68 -20 17 C-17.45953542 16.49311395 -14.91791124 15.99433126 -12.375 15.5 C-11.66214844 15.35691406 -10.94929687 15.21382812 -10.21484375 15.06640625 C-6.07855065 14.26950574 -2.23566321 13.83965944 2 14 C1.855625 13.32453125 1.71125 12.6490625 1.5625 11.953125 C1.376875 11.06109375 1.19125 10.1690625 1 9.25 C0.814375 8.36828125 0.62875 7.4865625 0.4375 6.578125 C0 4 0 4 0 0 Z " fill="#E5CCA7" transform="translate(178,206)"/>
<path d="M0 0 C0.66 0 1.32 0 2 0 C1.625 1.9375 1.625 1.9375 1 4 C-1.94320459 5.4716023 -4.55981746 5.12734749 -7.84545898 5.12939453 C-8.54984604 5.13114685 -9.25423309 5.13289917 -9.97996521 5.13470459 C-12.31869952 5.13911981 -14.65735861 5.13618344 -16.99609375 5.1328125 C-18.6259818 5.13348631 -20.25586974 5.13445698 -21.88575745 5.13571167 C-25.31146191 5.13718875 -28.73714035 5.13503627 -32.1628418 5.13037109 C-36.52690714 5.12471436 -40.89091042 5.12792676 -45.25497341 5.13394356 C-48.62757318 5.13758373 -52.00015863 5.13639412 -55.37275887 5.13381577 C-56.97970652 5.1331539 -58.58665553 5.1339487 -60.19360161 5.13629532 C-68.8417285 5.14614005 -77.39798888 5.02201103 -86 4 C-86 3.67 -86 3.34 -86 3 C-76.67197236 2.86871223 -67.34393348 2.73826091 -58.01587963 2.60884857 C-53.6835136 2.54871802 -49.35115182 2.48830996 -45.01879883 2.42724609 C-40.83018711 2.36821881 -36.64156546 2.3099487 -32.45293617 2.25218201 C-30.86273136 2.23012207 -29.27253018 2.20779899 -27.68233299 2.18519592 C-26.1649738 2.16365998 -24.64760902 2.14251332 -23.13023853 2.12178802 C-21.7004741 2.10212076 -20.27072356 2.08141037 -18.84099102 2.05954742 C-13.89105084 1.99001409 -8.95046835 2.04000918 -4.00239563 2.18762207 C-1.76766953 2.19304082 -1.76766953 2.19304082 0 0 Z " fill="#C2914A" transform="translate(304,257)"/>
<path d="M0 0 C0.66 0 1.32 0 2 0 C2 0.99 2 1.98 2 3 C-38.26 3 -78.52 3 -120 3 C-120 2.67 -120 2.34 -120 2 C-110.10429643 1.82518188 -100.20845302 1.65995706 -90.3125 1.5 C-89.57382313 1.48797546 -88.83514626 1.47595093 -88.07408524 1.46356201 C-64.24298389 1.07704478 -40.42389883 0.90432624 -16.58911133 1.03710938 C-15.53408417 1.04133911 -14.47905701 1.04556885 -13.39205933 1.04992676 C-11.43079307 1.05808954 -9.46953814 1.0704577 -7.5083313 1.08776855 C-5.33870624 1.0960934 -3.16897197 1.05387746 -1 1 C-0.67 0.67 -0.34 0.34 0 0 Z " fill="#B27D33" transform="translate(304,133)"/>
<path d="M0 0 C4.08787651 -0.48665196 5.76152463 -0.14848467 9.3125 2.0625 C12.53289137 5.58246266 13.16653727 7.25368766 13 12 C11.04952446 16.3249675 9.12773997 18.10108843 4.875 19.875 C4.19179688 20.09929687 3.50859375 20.32359375 2.8046875 20.5546875 C-0.10834122 22.88763258 -0.20472592 26.4976935 -1 30 C-3.66666667 40.66666667 -6.33333333 51.33333333 -9 62 C-9.66 61.67 -10.32 61.34 -11 61 C-10.71561048 59.10306139 -10.42216208 57.20747973 -10.125 55.3125 C-9.96257812 54.25675781 -9.80015625 53.20101562 -9.6328125 52.11328125 C-9.03789646 49.18644124 -8.10513605 46.76065606 -7 44 C-6.64073685 42.07062381 -6.33005274 40.13171656 -6.0625 38.1875 C-5.2705414 33.07119604 -3.9314101 28.78653808 -2 24 C-1.62033354 22.34327363 -1.26239024 20.67929755 -1 19 C-0.113125 18.773125 0.77375 18.54625 1.6875 18.3125 C5.55661931 16.77945273 7.45904238 15.2882981 10 12 C10.83349951 8.95659873 10.83349951 8.95659873 10 6 C6.95617461 2.78224173 4.38104998 1.50069143 0 1 C0 0.67 0 0.34 0 0 Z " fill="#F8F4EE" transform="translate(322,59)"/>
<path d="M0 0 C0.495 1.485 0.495 1.485 1 3 C0.34 3.99 -0.32 4.98 -1 6 C-3.69204148 6.2863593 -6.15319556 6.37835144 -8.84619141 6.34057617 C-9.65602982 6.34101425 -10.46586823 6.34145233 -11.30024719 6.34190369 C-13.98426194 6.33980914 -16.66765652 6.31644717 -19.3515625 6.29296875 C-21.20958108 6.28737515 -23.06760408 6.28310394 -24.92562866 6.28010559 C-29.82153489 6.26863819 -34.71717512 6.2391548 -39.61297607 6.20599365 C-44.60653077 6.17533352 -49.60012835 6.16160895 -54.59375 6.14648438 C-64.39595036 6.11428685 -74.19795308 6.06306771 -84 6 C-84 5.67 -84 5.34 -84 5 C-77.02097998 4.82680275 -70.0418024 4.66140117 -63.0625 4.5 C-61.50659149 4.46348831 -61.50659149 4.46348831 -59.91925049 4.42623901 C-49.19180101 4.17814612 -38.46905783 3.95068893 -27.73828125 4.00390625 C-26.96962234 4.0074411 -26.20096344 4.01097595 -25.40901184 4.01461792 C-21.85698262 4.03469853 -18.3058092 4.07026782 -14.75415039 4.125 C-13.51270264 4.13660156 -12.27125488 4.14820313 -10.9921875 4.16015625 C-9.38899658 4.18541382 -9.38899658 4.18541382 -7.75341797 4.21118164 C-4.94314453 3.9956393 -3.33816191 3.54445841 -1 2 C-0.67 1.34 -0.34 0.68 0 0 Z " fill="#B88336" transform="translate(333,188)"/>
<path d="M0 0 C0 0.33 0 0.66 0 1 C-1.59328125 0.94779297 -1.59328125 0.94779297 -3.21875 0.89453125 C-15.31284502 0.42081898 -15.31284502 0.42081898 -25.9453125 5.53515625 C-33.00196804 11.04247229 -39.38297479 10.61306899 -48 10 C-48.66 8.68 -49.32 7.36 -50 6 C-48.75863281 6.04640625 -47.51726562 6.0928125 -46.23828125 6.140625 C-44.59637829 6.17815421 -42.95444923 6.21455314 -41.3125 6.25 C-40.49587891 6.28351563 -39.67925781 6.31703125 -38.83789062 6.3515625 C-34.72381887 6.41818714 -32.62084779 6.40970927 -29.10546875 4.08984375 C-28.41066406 3.40019531 -27.71585938 2.71054687 -27 2 C-18.6245291 -2.71120238 -9.00384367 -3.79109207 0 0 Z " fill="#E0E1E4" transform="translate(180,357)"/>
<path d="M0 0 C1 4 1 4 -5 17 C-31.73 16.67 -58.46 16.34 -86 16 C-86 15.67 -86 15.34 -86 15 C-46.895 14.505 -46.895 14.505 -7 14 C-4.84158921 9.71304704 -4.84158921 9.71304704 -2.9375 5.3125 C-2 3 -2 3 0 0 Z " fill="#A97331" transform="translate(330,310)"/>
<path d="M0 0 C0.99 0.33 1.98 0.66 3 1 C3.12117188 1.66386719 3.24234375 2.32773438 3.3671875 3.01171875 C4.23455567 7.58208182 5.23247278 11.6916524 7 16 C8.09693365 20.20357784 8.9255533 24.37252065 9.4375 28.6875 C10.05023713 32.29584088 11.31680167 34.76825921 13 38 C13.76908156 40.31662373 14.385207 42.63541153 15 45 C13.515 45.495 13.515 45.495 12 46 C11.20442625 43.66793649 10.41348904 41.33445914 9.625 39 C9.40328125 38.35160156 9.1815625 37.70320313 8.953125 37.03515625 C7.63086834 33.10727619 6.49098162 29.17959287 5.51806641 25.14697266 C4.93769999 22.74181606 4.32553903 20.34584909 3.7109375 17.94921875 C3.26558663 16.19532224 2.82027458 14.44141588 2.375 12.6875 C2.14554687 11.79482422 1.91609375 10.90214844 1.6796875 9.98242188 C1.463125 9.12583984 1.2465625 8.26925781 1.0234375 7.38671875 C0.82669434 6.61545654 0.62995117 5.84419434 0.42724609 5.04956055 C0 3 0 3 0 0 Z " fill="#F2C97B" transform="translate(115,165)"/>
<path d="M0 0 C0.33 0.99 0.66 1.98 1 3 C0.04885635 4.69502317 -0.95930245 6.35843782 -2 8 C-3.10122804 10.83340881 -4.0646359 13.69383907 -5.03515625 16.57421875 C-6 19 -6 19 -8 21 C-8.60565622 22.44094514 -9.16118414 23.90322081 -9.6875 25.375 C-11.34124801 29.58621704 -13.22084783 33.58231155 -15.375 37.5625 C-15.91898437 38.57441406 -16.46296875 39.58632812 -17.0234375 40.62890625 C-19 43 -19 43 -22.078125 43.8984375 C-25.11636232 44.00404468 -26.48872732 43.64198598 -29 42 C-25.92382812 41.70703125 -25.92382812 41.70703125 -22.84765625 41.4140625 C-21.93306641 41.20910156 -21.93306641 41.20910156 -21 41 C-20.67 40.34 -20.34 39.68 -20 39 C-19.34 39 -18.68 39 -18 39 C-17.88785156 38.47535156 -17.77570313 37.95070312 -17.66015625 37.41015625 C-15.88628065 30.44218738 -12.78750319 24.48385057 -9.31274414 18.24243164 C-6.74523582 13.59359929 -4.8185807 8.98902671 -3 4 C-1.3125 1.5 -1.3125 1.5 0 0 Z " fill="#F1E8DE" transform="translate(353,152)"/>
<path d="M0 0 C3 1 3 1 4.6875 3.25 C6.90573125 9.58780358 7.4764569 16.37692136 4.8984375 22.703125 C1.76508188 27.76341055 -1.47241705 30.80802745 -7 33 C-9.76409663 33.28661107 -12.20867498 33.19588246 -15 33 C-14 31 -14 31 -12.109375 30.32421875 C-11.33078125 30.11410156 -10.5521875 29.90398437 -9.75 29.6875 C-4.14503051 27.90814461 -1.41222326 25.14268357 1.8125 20.25 C3.84198165 14.69562916 3.87047921 9.99484819 1.5 4.5625 C1.005 3.716875 0.51 2.87125 0 2 C0 1.34 0 0.68 0 0 Z " fill="#EBECEF" transform="translate(294,372)"/>
<path d="M0 0 C1 3 1 3 -0.37109375 6.01171875 C-1.05050557 7.24221092 -1.74004273 8.46714564 -2.4375 9.6875 C-3.18187588 11.02873572 -3.92398774 12.37122995 -4.6640625 13.71484375 C-5.24269043 14.76260986 -5.24269043 14.76260986 -5.83300781 15.83154297 C-8.12330249 20.08727463 -10.21142627 24.44815224 -12.29663086 28.80737305 C-13.85278105 31.99189301 -15.23567544 34.72049544 -18 37 C-18.99 36.67 -19.98 36.34 -21 36 C-20.34 36 -19.68 36 -19 36 C-17.43793574 32.90130783 -15.92878819 29.77990805 -14.43359375 26.6484375 C-13.94826172 25.63265625 -13.46292969 24.616875 -12.96289062 23.5703125 C-12.45951172 22.51585937 -11.95613281 21.46140625 -11.4375 20.375 C-10.43635361 18.27857147 -9.43505904 16.18221371 -8.43359375 14.0859375 C-7.99072021 13.1582959 -7.54784668 12.2306543 -7.09155273 11.27490234 C-6.40528189 9.84464697 -5.70945022 8.41890045 -5 7 C-4.34 7 -3.68 7 -3 7 C-2.87625 6.21625 -2.7525 5.4325 -2.625 4.625 C-2 2 -2 2 0 0 Z " fill="#F2EADF" transform="translate(324,225)"/>
<path d="M0 0 C0.33 0 0.66 0 1 0 C1.98039431 8.16995255 -1.37041248 14.83485572 -5 22 C-7 24 -7 24 -9.3125 24.23046875 C-10.199375 24.21628906 -11.08625 24.20210938 -12 24.1875 C-13.3303125 24.17783203 -13.3303125 24.17783203 -14.6875 24.16796875 C-17 24 -17 24 -19 23 C-19 22.34 -19 21.68 -19 21 C-15.04 21 -11.08 21 -7 21 C-6.67 19.35 -6.34 17.7 -6 16 C-5.56268512 14.65944749 -5.09316131 13.32891151 -4.58984375 12.01171875 C-4.32236328 11.30595703 -4.05488281 10.60019531 -3.77929688 9.87304688 C-3.50150391 9.15181641 -3.22371094 8.43058594 -2.9375 7.6875 C-2.65583984 6.94693359 -2.37417969 6.20636719 -2.08398438 5.44335938 C-1.39281425 3.62757345 -0.69688311 1.81360101 0 0 Z " fill="#E5E5E8" transform="translate(318,343)"/>
<path d="M0 0 C0.66 0 1.32 0 2 0 C1.67 1.32 1.34 2.64 1 4 C-21.11 4 -43.22 4 -66 4 C-66 3.67 -66 3.34 -66 3 C-59.1356209 2.85554298 -52.27119668 2.71339159 -45.40673828 2.57275391 C-43.07730051 2.52476742 -40.74787307 2.47627604 -38.41845703 2.42724609 C-35.04722719 2.3563794 -31.6759646 2.287328 -28.3046875 2.21875 C-27.2193573 2.19578857 -26.1340271 2.17282715 -25.01580811 2.14916992 C-18.11970363 2.01208148 -11.24401298 1.99444132 -4.34814453 2.17773438 C-1.80746317 2.24194358 -1.80746317 2.24194358 0 0 Z " fill="#B88439" transform="translate(304,257)"/>
<path d="M0 0 C4.98041064 -0.09948577 9.96023252 -0.17175686 14.94140625 -0.21972656 C16.63291511 -0.2397406 18.32435567 -0.26696073 20.015625 -0.30175781 C22.45850554 -0.35073065 24.90046511 -0.37307033 27.34375 -0.390625 C28.08991577 -0.41127014 28.83608154 -0.43191528 29.6048584 -0.45318604 C35.1786215 -0.45552442 39.30876477 0.9801321 44 4 C48.14996197 8.27331541 49.63576721 13.1722754 50 19 C49.34 18.67 48.68 18.34 48 18 C47.566875 16.39125 47.566875 16.39125 47.125 14.75 C45.58423021 9.61410071 43.42963551 6.95309034 39 4 C37.0103005 3.60986284 35.00980131 3.26797351 33 3 C33 2.67 33 2.34 33 2 C22.11 1.67 11.22 1.34 0 1 C0 0.67 0 0.34 0 0 Z " fill="#C7C9CF" transform="translate(24,142)"/>
<path d="M0 0 C1.16839021 3.50517062 0.85751736 3.95788396 -0.625 7.17578125 C-0.99890869 7.99788086 -1.37281738 8.81998047 -1.75805664 9.66699219 C-2.3728186 10.97651855 -2.3728186 10.97651855 -3 12.3125 C-3.61379517 13.64716309 -3.61379517 13.64716309 -4.23999023 15.00878906 C-7.66957254 22.41855328 -11.26232905 29.74098633 -15 37 C-15.66 37 -16.32 37 -17 37 C-16.41253423 33.05760922 -15.18996078 30.24456569 -13.1875 26.8125 C-11.18837519 23.2653593 -9.43947885 19.80824151 -8 16 C-5.86512679 10.37334263 -2.97662721 5.2190197 0 0 Z " fill="#F7F2EB" transform="translate(342,290)"/>
<path d="M0 0 C1.53113434 0.00045319 1.53113434 0.00045319 3.09320068 0.00091553 C4.18811829 0.02156067 5.28303589 0.04220581 6.41113281 0.06347656 C7.53747131 0.06913635 8.66380981 0.07479614 9.82427979 0.08062744 C13.42137164 0.10301611 17.01746707 0.15321943 20.61425781 0.20410156 C23.05304551 0.22416324 25.49184882 0.24241458 27.93066406 0.25878906 C33.90886856 0.30288913 39.886492 0.36982693 45.86425781 0.45410156 C45.86425781 0.78410156 45.86425781 1.11410156 45.86425781 1.45410156 C43.9356189 1.48383057 43.9356189 1.48383057 41.96801758 1.51416016 C37.16509515 1.59064352 32.36245892 1.67929295 27.55981445 1.77148438 C25.48728109 1.80959845 23.41468552 1.8444809 21.34204102 1.87597656 C18.35052366 1.92201097 15.35942804 1.97993969 12.36816406 2.04003906 C10.99417198 2.05736588 10.99417198 2.05736588 9.59242249 2.07504272 C3.75931871 2.20671459 -1.47677306 3.01985861 -7.13574219 4.45410156 C-7.13574219 7.09410156 -7.13574219 9.73410156 -7.13574219 12.45410156 C-9.30125335 9.20583482 -9.68731171 8.22315999 -9.13574219 4.45410156 C-6.28789744 0.88809312 -4.53426325 -0.0448937 0 0 Z " fill="#F1E6D5" transform="translate(185.1357421875,193.5458984375)"/>
<path d="M0 0 C0.66 0 1.32 0 2 0 C2.95675097 2.92518599 3.44000142 5.05049775 2.11279297 7.91455078 C0.31268001 10.73659208 -1.62095633 13.44730915 -3.57226562 16.16601562 C-4.8766939 18.0817241 -6.06121121 19.88032129 -7 22 C-6.6072391 24.78434783 -6.6072391 24.78434783 -5 27 C-4.63519531 27.70382813 -4.27039063 28.40765625 -3.89453125 29.1328125 C-3.16920996 30.46824158 -2.43999547 31.80156299 -1.70703125 33.1328125 C-1 35 -1 35 -2 38 C-3.36936501 35.59087645 -4.72041993 33.17425815 -6.0625 30.75 C-6.45244141 30.06808594 -6.84238281 29.38617188 -7.24414062 28.68359375 C-7.60830078 28.01972656 -7.97246094 27.35585937 -8.34765625 26.671875 C-8.68804932 26.0644043 -9.02844238 25.45693359 -9.37915039 24.83105469 C-10.17644962 22.479602 -9.84917654 21.308545 -9 19 C-7.03275344 15.91769774 -4.92514799 12.95677154 -2.8125 9.97265625 C-0.73645942 6.56777073 0 3.94908489 0 0 Z " fill="#F5EEE1" transform="translate(242,38)"/>
<path d="M0 0 C4.48406851 1.4946895 5.37112 4.48341192 7.50390625 8.546875 C10.93848835 16.47421332 13.34946603 25.33055427 13 34 C11.20726598 31.31089897 10.47942831 29.64419116 9.6328125 26.61328125 C9.38660156 25.75669922 9.14039062 24.90011719 8.88671875 24.01757812 C8.38457557 22.23432606 7.88452588 20.45048298 7.38671875 18.66601562 C5.96022537 13.71763573 4.30989324 9.21832171 1.86279297 4.68041992 C1 3 1 3 0 0 Z " fill="#D9DADE" transform="translate(88,131)"/>
<path d="M0 0 C0.66 0 1.32 0 2 0 C2 0.99 2 1.98 2 3 C-18.46 3 -38.92 3 -60 3 C-60 2.67 -60 2.34 -60 2 C-47.56117505 0.78685238 -35.17038453 0.91702443 -22.6875 1 C-18.60807604 1.02651641 -14.52869577 1.04647908 -10.44921875 1.0625 C-9.51397873 1.07079834 -8.57873871 1.07909668 -7.61515808 1.08764648 C-6.75948746 1.09094971 -5.90381683 1.09425293 -5.0222168 1.09765625 C-4.26724411 1.10289307 -3.51227142 1.10812988 -2.73442078 1.11352539 C-0.96964187 1.18944604 -0.96964187 1.18944604 0 0 Z " fill="#A6712E" transform="translate(304,133)"/>
<path d="M0 0 C1.65 0 3.3 0 5 0 C10.37129841 9.41002278 10.37129841 9.41002278 12 14 C9.11791034 13.35953563 7.43282445 12.65269374 5.77734375 10.15625 C3 4.66129032 3 4.66129032 3 2 C0.04070881 4.75520215 -2.03681826 7.46627288 -4 11 C-4.33 10.34 -4.66 9.68 -5 9 C-4.00390625 6.8359375 -4.00390625 6.8359375 -2.5625 4.375 C-2.08941406 3.55773437 -1.61632812 2.74046875 -1.12890625 1.8984375 C-0.75636719 1.27195312 -0.38382813 0.64546875 0 0 Z " fill="#E8C890" transform="translate(223,13)"/>
<path d="M0 0 C0.99 0 1.98 0 3 0 C2.34 2.31 1.68 4.62 1 7 C0.34 7 -0.32 7 -1 7 C-1.23460937 7.80695313 -1.46921875 8.61390625 -1.7109375 9.4453125 C-3.30000035 13.8272737 -5.40649114 17.78462429 -7.625 21.875 C-8.04523438 22.65875 -8.46546875 23.4425 -8.8984375 24.25 C-9.9281022 26.16892057 -10.96347567 28.08477603 -12 30 C-12.33 29.34 -12.66 28.68 -13 28 C-12.26821134 25.92803369 -11.44100997 23.8891448 -10.5625 21.875 C-10.08941406 20.77929688 -9.61632812 19.68359375 -9.12890625 18.5546875 C-8.57009766 17.29011719 -8.57009766 17.29011719 -8 16 C-7.34 16 -6.68 16 -6 16 C-5.80664062 15.32453125 -5.61328125 14.6490625 -5.4140625 13.953125 C-5.02347656 12.61507812 -5.02347656 12.61507812 -4.625 11.25 C-4.36976563 10.36828125 -4.11453125 9.4865625 -3.8515625 8.578125 C-3.07668889 6.23217736 -2.16241489 4.17362134 -1 2 C-0.67 1.34 -0.34 0.68 0 0 Z " fill="#B2803D" transform="translate(320,225)"/>
<path d="M0 0 C2 2 2 2 3.25 4.8125 C5.78334366 9.42680452 8.90482312 12.30160771 14 14 C15.89212737 14.22179785 17.78884472 14.40614015 19.6875 14.5625 C20.68136719 14.64628906 21.67523438 14.73007812 22.69921875 14.81640625 C23.45847656 14.87699219 24.21773437 14.93757813 25 15 C24.01 15.495 24.01 15.495 23 16 C23 16.66 23 17.32 23 18 C14.7096492 17.62402037 9.33448936 15.75490306 3.625 9.625 C1.1176468 6.53748795 0.19708714 4.04028644 0 0 Z " fill="#DDDEE2" transform="translate(149,388)"/>
<path d="M0 0 C2.09715785 3.14573677 2.52004559 5.01456251 3.125 8.6875 C3.29257813 9.68136719 3.46015625 10.67523438 3.6328125 11.69921875 C3.75398438 12.45847656 3.87515625 13.21773437 4 14 C2.58398286 14.48108275 1.16715563 14.95978141 -0.25 15.4375 C-1.03890625 15.70433594 -1.8278125 15.97117188 -2.640625 16.24609375 C-6.48477063 17.4744383 -9.69619204 18.12211482 -13.75 18.0625 C-14.54921875 18.05347656 -15.3484375 18.04445312 -16.171875 18.03515625 C-16.77515625 18.02355469 -17.3784375 18.01195312 -18 18 C-11.93775593 14.67554357 -4.86061613 13.63891494 2 14 C1.855625 13.32453125 1.71125 12.6490625 1.5625 11.953125 C1.376875 11.06109375 1.19125 10.1690625 1 9.25 C0.814375 8.36828125 0.62875 7.4865625 0.4375 6.578125 C0 4 0 4 0 0 Z " fill="#FCF8F1" transform="translate(178,206)"/>
<path d="M0 0 C0.33 0 0.66 0 1 0 C2.16314671 6.18009275 2.37870371 10.40402198 -1 16 C-3.97079738 19.30739019 -6.43830856 21.80063513 -10.9375 22.375 C-11.618125 22.25125 -12.29875 22.1275 -13 22 C-12.443125 21.5875 -11.88625 21.175 -11.3125 20.75 C-10.549375 20.1725 -9.78625 19.595 -9 19 C-8.154375 18.4225 -7.30875 17.845 -6.4375 17.25 C-1.32269789 12.5286442 -0.57901287 6.60074677 0 0 Z " fill="#E5E6E9" transform="translate(188,381)"/>
<path d="M0 0 C0.66 0.33 1.32 0.66 2 1 C1.50628906 1.556875 1.01257813 2.11375 0.50390625 2.6875 C-3.8434466 7.86583579 -6.11208645 11.16272678 -6 18 C-5.18156968 21.3815339 -5.18156968 21.3815339 -4 24 C-6 22.625 -6 22.625 -8 20 C-8.88872627 15.00946017 -8.58771234 11.13344524 -6.25 6.625 C-4.25387379 4.29618609 -2.24743557 2.08690446 0 0 Z " fill="#FBF7F1" transform="translate(197,263)"/>
<path d="M0 0 C0.99 0.66 1.98 1.32 3 2 C2.14277344 2.04898437 1.28554688 2.09796875 0.40234375 2.1484375 C-6.93147954 2.53252081 -6.93147954 2.53252081 -14.0625 4.125 C-17.11195311 5.03334774 -18.07935428 4.89189611 -21 4 C-14.04816841 0.62210352 -7.76776742 -1.11152745 0 0 Z " fill="#DBDDE1" transform="translate(284,355)"/>
<path d="M0 0 C3.35958066 2.65686035 4.05749034 5.71486972 5.1875 9.75 C5.53167969 10.94109375 5.87585938 12.1321875 6.23046875 13.359375 C7.00402927 17.01906231 7.13861207 20.27181334 7 24 C5.25041441 21.37562161 4.5251318 19.81796628 3.7109375 16.875 C3.49179688 16.08609375 3.27265625 15.2971875 3.046875 14.484375 C2.82515625 13.66453125 2.6034375 12.8446875 2.375 12 C2.14554687 11.18015625 1.91609375 10.3603125 1.6796875 9.515625 C0 3.39676339 0 3.39676339 0 0 Z " fill="#D8D9DD" transform="translate(105,180)"/>
<path d="M0 0 C4.08787651 -0.48665196 5.76152463 -0.14848467 9.3125 2.0625 C12.53289137 5.58246266 13.16653727 7.25368766 13 12 C11.0625 15.4375 11.0625 15.4375 9 18 C7.68 17.67 6.36 17.34 5 17 C5.825 16.29875 6.65 15.5975 7.5 14.875 C10.21485556 12.22906309 10.21485556 12.22906309 10.625 8.9375 C10.23356424 5.84470904 10.23356424 5.84470904 7.8125 3.6875 C5.08301905 2.04981143 3.13584232 1.35838198 0 1 C0 0.67 0 0.34 0 0 Z " fill="#F0E8DD" transform="translate(322,59)"/>
<path d="M0 0 C0.66 0.33 1.32 0.66 2 1 C2.55078125 2.71484375 2.55078125 2.71484375 3 5 C3.19980469 5.88816406 3.39960938 6.77632813 3.60546875 7.69140625 C3.79753906 8.63886719 3.98960937 9.58632812 4.1875 10.5625 C4.38730469 11.51253906 4.58710938 12.46257812 4.79296875 13.44140625 C5 16 5 16 3 19 C2.30048937 16.586238 1.61516081 14.16989766 0.9375 11.75 C0.63875977 10.72712891 0.63875977 10.72712891 0.33398438 9.68359375 C-1.40009269 3.41657839 -1.40009269 3.41657839 0 0 Z " fill="#E2B468" transform="translate(140,116)"/>
<path d="M0 0 C0.33 0 0.66 0 1 0 C1.33097083 6.17812223 0.38356276 10.3492122 -2 16 C-2.67735217 17.99640639 -3.34838935 19.99504414 -4 22 C-4.33 22 -4.66 22 -5 22 C-5.19527838 17.11804058 -4.73008124 13.55284536 -3 9 C-2.45273038 7.3768784 -1.9113259 5.75177051 -1.375 4.125 C-0.91666667 2.75 -0.45833333 1.375 0 0 Z " fill="#A87330" transform="translate(319,79)"/>
<path d="M0 0 C2 3 2 3 2 6 C2.66 6 3.32 6 4 6 C5.66489182 9.92438786 6.87204037 13.89100419 8 18 C7.01 18.33 6.02 18.66 5 19 C4.15919981 16.58570231 3.32718598 14.16896007 2.5 11.75 C2.14228516 10.72712891 2.14228516 10.72712891 1.77734375 9.68359375 C0.60578713 6.23586997 0 3.68297096 0 0 Z " fill="#F4D99E" transform="translate(122,192)"/>
<path d="M0 0 C0.66 0 1.32 0 2 0 C3.98697306 6.68572695 5.42978625 13.04339229 6 20 C3.27216889 17.27216889 2.7975372 14.19456312 1.875 10.5625 C1.69324219 9.88123047 1.51148437 9.19996094 1.32421875 8.49804688 C0.56488021 5.58344292 0 3.02438796 0 0 Z " fill="#D5D7DB" transform="translate(112,205)"/>
<path d="M0 0 C1 3 1 3 0.19555664 5.0847168 C-0.22862549 5.86500244 -0.65280762 6.64528809 -1.08984375 7.44921875 C-1.54423828 8.29677734 -1.99863281 9.14433594 -2.46679688 10.01757812 C-2.95212891 10.89865234 -3.43746094 11.77972656 -3.9375 12.6875 C-4.65969727 14.02651367 -4.65969727 14.02651367 -5.39648438 15.39257812 C-6.58876897 17.60007534 -7.79017894 19.80207933 -9 22 C-9.33 21.34 -9.66 20.68 -10 20 C-7.32644215 13.04874959 -3.85138297 6.36959491 0 0 Z " fill="#AB7A39" transform="translate(345,164)"/>
<path d="M0 0 C0 4.6934301 -2.19625767 8.30315959 -5 12 C-8.44864357 13.33722914 -9.95790513 13.41135324 -13.375 12.0625 C-13.91125 11.711875 -14.4475 11.36125 -15 11 C-11.92382812 10.70703125 -11.92382812 10.70703125 -8.84765625 10.4140625 C-8.23792969 10.27742187 -7.62820313 10.14078125 -7 10 C-6.67 9.34 -6.34 8.68 -6 8 C-5.34 8 -4.68 8 -4 8 C-3.71125 7.05125 -3.4225 6.1025 -3.125 5.125 C-2 2 -2 2 0 0 Z " fill="#F4EFE8" transform="translate(339,183)"/>
<path d="M0 0 C0.66 0 1.32 0 2 0 C1.88487847 1.72985242 1.75744323 3.45888751 1.625 5.1875 C1.55539062 6.15042969 1.48578125 7.11335938 1.4140625 8.10546875 C0.99337992 11.04627812 0.31339165 13.34014569 -1 16 C-1.66 16.33 -2.32 16.66 -3 17 C-2.85950482 15.52031676 -2.71245174 14.04125484 -2.5625 12.5625 C-2.48128906 11.73878906 -2.40007812 10.91507813 -2.31640625 10.06640625 C-2 8 -2 8 -1 7 C-0.63239269 4.67182036 -0.29758419 2.3381615 0 0 Z " fill="#AF8043" transform="translate(312,102)"/>
<path d="M0 0 C3.33098122 2.74805951 4.86534577 4.16215145 5.5625 8.5 C4.92501775 12.46655624 3.76383547 14.14979467 1 17 C1 13 1 13 2 11 C2.23553948 6.76028942 2.32845886 3.63821698 0 0 Z " fill="#F6ECDC" transform="translate(132,62)"/>
<path d="M0 0 C5.61 0 11.22 0 17 0 C16.67 0.99 16.34 1.98 16 3 C9.78630501 4.01924246 5.51648654 4.62926746 0 1 C0 0.67 0 0.34 0 0 Z " fill="#D9AF67" transform="translate(166,103)"/>
<path d="M0 0 C-1.423125 0.495 -1.423125 0.495 -2.875 1 C-6.24781934 3.15860438 -6.43787093 3.37870317 -7.25 7 C-7.35828125 7.680625 -7.4665625 8.36125 -7.578125 9.0625 C-8 11 -8 11 -10 14 C-9.03644647 4.58997722 -9.03644647 4.58997722 -8 0 C-4.71303767 -0.79953138 -3.28976808 -1.09658936 0 0 Z " fill="#F9F5F1" transform="translate(329,78)"/>
<path d="M0 0 C0.66 0 1.32 0 2 0 C5.44419134 11.52164009 5.44419134 11.52164009 5 17 C3.025333 14.03799949 2.28044646 11.90228368 1.375 8.5 C1.11460938 7.5409375 0.85421875 6.581875 0.5859375 5.59375 C0 3 0 3 0 0 Z " fill="#D9DADE" transform="translate(118,226)"/>
<path d="M0 0 C3.10609978 2.07073319 3.94458127 3.24999997 5.6875 6.4375 C6.12449219 7.21996094 6.56148437 8.00242187 7.01171875 8.80859375 C8 11 8 11 8 14 C7.4225 13.2575 6.845 12.515 6.25 11.75 C4.1248954 9.00511268 4.1248954 9.00511268 1.75 7 C0 5 0 5 -0.25 2.25 C-0.1675 1.5075 -0.085 0.765 0 0 Z " fill="#E9D7B8" transform="translate(241,76)"/>
<path d="M0 0 C0.99 0.78375 1.98 1.5675 3 2.375 C6.87745088 5.17405963 10.33323603 6.09939643 15 7 C15 7.33 15 7.66 15 8 C9.05913587 8.52112843 6.04236872 7.94890354 1.25 4.38671875 C0 3 0 3 0 0 Z " fill="#DDDEE2" transform="translate(263,396)"/>
<path d="M0 0 C3 1 3 1 4.6875 3.375 C6.47304056 8.30649297 6.24928545 12.81116953 6 18 C5.67 18 5.34 18 5 18 C5 14.7 5 11.4 5 8 C4.34 8 3.68 8 3 8 C0 2.25 0 2.25 0 0 Z " fill="#E7E8EA" transform="translate(294,372)"/>
<path d="M0 0 C3.96 0 7.92 0 12 0 C7.78622182 3.16033363 6.9510716 3.43052797 2 3 C1.34 2.67 0.68 2.34 0 2 C0 1.34 0 0.68 0 0 Z " fill="#DDDEE1" transform="translate(299,364)"/>
<path d="M0 0 C0.33 0.66 0.66 1.32 1 2 C1.99 2.33 2.98 2.66 4 3 C4.84098656 7.01804691 5.05404945 10.01803543 4 14 C3.67 14 3.34 14 3 14 C2.49307308 12.4188708 1.99473557 10.83498617 1.5 9.25 C1.2215625 8.36828125 0.943125 7.4865625 0.65625 6.578125 C0 4 0 4 0 0 Z " fill="#E4BE7F" transform="translate(138,248)"/>
<path d="M0 0 C0 0.99 0 1.98 0 3 C-1.5823006 3.33820166 -3.16589375 3.67035939 -4.75 4 C-6.07257813 4.2784375 -6.07257813 4.2784375 -7.421875 4.5625 C-10 5 -10 5 -14 5 C-14 4.34 -14 3.68 -14 3 C-12.23050388 2.49528803 -10.45934777 1.99639315 -8.6875 1.5 C-7.70136719 1.2215625 -6.71523437 0.943125 -5.69921875 0.65625 C-3 0 -3 0 0 0 Z " fill="#DDAE5D" transform="translate(174,218)"/>
<path d="M0 0 C0 0.33 0 0.66 0 1 C-2.97 1.66 -5.94 2.32 -9 3 C-9 5.64 -9 8.28 -9 11 C-11.15502531 7.76746204 -11.46856135 6.74849077 -11 3 C-8.63169142 -1.2925593 -4.30785219 -0.21186158 0 0 Z " fill="#FAF6EE" transform="translate(187,195)"/>
<path d="M0 0 C0.66 0.66 1.32 1.32 2 2 C1.71125 2.66 1.4225 3.32 1.125 4 C-0.23437299 7.62499465 -1.10624639 11.23346693 -2 15 C-2.66 15 -3.32 15 -4 15 C-2.9318153 9.88634986 -1.76892524 4.92772031 0 0 Z " fill="#FAF7F3" transform="translate(311,120)"/>
<path d="M0 0 C0.99 0.33 1.98 0.66 3 1 C0.69 3.31 -1.62 5.62 -4 8 C-4.99 7.67 -5.98 7.34 -7 7 C-4.66666667 4.66666667 -2.33333333 2.33333333 0 0 Z " fill="#B18145" transform="translate(309,86)"/>
<path d="M0 0 C0.66 0.99 1.32 1.98 2 3 C0.68 5.64 -0.64 8.28 -2 11 C-2.66 11 -3.32 11 -4 11 C-3.39301257 6.87248551 -1.96189209 3.6678852 0 0 Z " fill="#EEE2D5" transform="translate(329,316)"/>
<path d="M0 0 C3.60513403 2.06007659 6.80331012 4.3513141 10 7 C9.67 7.66 9.34 8.32 9 9 C6.0625 7.6875 6.0625 7.6875 3 6 C2.67 5.01 2.34 4.02 2 3 C1.34 2.67 0.68 2.34 0 2 C0 1.34 0 0.68 0 0 Z " fill="#E6CCA3" transform="translate(143,88)"/>
<path d="M0 0 C2 1.375 2 1.375 4 3 C4 3.66 4 4.32 4 5 C4.9590625 5.433125 4.9590625 5.433125 5.9375 5.875 C8 7 8 7 9 9 C8.401875 8.67 7.80375 8.34 7.1875 8 C4.94613529 6.79212012 4.94613529 6.79212012 2 7 C2 6.34 2 5.68 2 5 C1.34 4.67 0.68 4.34 0 4 C0 2.68 0 1.36 0 0 Z " fill="#E5CBA3" transform="translate(134,79)"/>
<path d="M0 0 C0.33 0 0.66 0 1 0 C1.33 3.96 1.66 7.92 2 12 C0.02 12.99 0.02 12.99 -2 14 C-1.34 9.38 -0.68 4.76 0 0 Z " fill="#CACCD1" transform="translate(298,380)"/>
<path d="M0 0 C0.99 0.33 1.98 0.66 3 1 C3 4.3 3 7.6 3 11 C0.43383368 7.15075052 0.44902324 4.5650696 0 0 Z " fill="#E6BE79" transform="translate(135,236)"/>
<path d="M0 0 C0.99 0.33 1.98 0.66 3 1 C3.80967438 3.91482778 4.21845993 5.46113217 3.0625 8.3125 C2.5365625 9.1478125 2.5365625 9.1478125 2 10 C0.39644899 6.49223216 -0.22036864 3.85645121 0 0 Z " fill="#EDCB8B" transform="translate(128,212)"/>
<path d="M0 0 C1.485 0.99 1.485 0.99 3 2 C3.1875 5.625 3.1875 5.625 3 9 C2.01 9.495 2.01 9.495 1 10 C0.67 6.7 0.34 3.4 0 0 Z " fill="#CC9B4F" transform="translate(132,64)"/>
<path d="M0 0 C-0.99 1.485 -0.99 1.485 -2 3 C-3.9453125 3.29296875 -3.9453125 3.29296875 -6.125 3.1875 C-7.40375 3.125625 -8.6825 3.06375 -10 3 C-9 1 -9 1 -5.5625 -0.1875 C-2 -1 -2 -1 0 0 Z " fill="#DEDFE3" transform="translate(289,402)"/>
<path d="M0 0 C2.97 0.99 5.94 1.98 9 3 C5 5 5 5 2.25 4.125 C1.5075 3.75375 0.765 3.3825 0 3 C0 2.01 0 1.02 0 0 Z " fill="#E6C284" transform="translate(157,99)"/>
<path d="M0 0 C0.33 0.66 0.66 1.32 1 2 C-2.32307692 5.93846154 -2.32307692 5.93846154 -5.75 6.25 C-6.4925 6.1675 -7.235 6.085 -8 6 C-5.38485683 3.87961365 -2.80362384 1.86908256 0 0 Z " fill="#B99059" transform="translate(301,93)"/>
<path d="M0 0 C0.33 0 0.66 0 1 0 C1 2.97 1 5.94 1 9 C0.34 9 -0.32 9 -1 9 C-1.33 9.66 -1.66 10.32 -2 11 C-1.125 3.375 -1.125 3.375 0 0 Z " fill="#E3D2BC" transform="translate(318,88)"/>
<path d="M0 0 C0 0.66 0 1.32 0 2 C-4.455 2.495 -4.455 2.495 -9 3 C-5.92807025 0.26939578 -4.09590633 -0.34132553 0 0 Z " fill="#E1E1E6" transform="translate(164,356)"/>
<path d="M0 0 C3.04095366 3.04095366 3.68440793 3.89730308 4 8 C3.34 8.66 2.68 9.32 2 10 C1.34 6.7 0.68 3.4 0 0 Z " fill="#DADBE0" transform="translate(137,294)"/>
<path d="M0 0 C0.66 0.33 1.32 0.66 2 1 C0.35 2.98 -1.3 4.96 -3 7 C-3.99 6.67 -4.98 6.34 -6 6 C-4.02 4.02 -2.04 2.04 0 0 Z " fill="#F7EFE1" transform="translate(197,263)"/>
<path d="M0 0 C0.33 0 0.66 0 1 0 C1 1.98 1 3.96 1 6 C-0.65 6 -2.3 6 -4 6 C-4 5.01 -4 4.02 -4 3 C-2.68 3 -1.36 3 0 3 C0 2.01 0 1.02 0 0 Z " fill="#DFB570" transform="translate(179,214)"/>
<path d="M0 0 C0.99 0.495 0.99 0.495 2 1 C2.73075648 3.3140622 3.40138258 5.64828869 4 8 C3.01 8.33 2.02 8.66 1 9 C-0.4783226 6.04335481 -0.06032783 3.25770263 0 0 Z " fill="#EBC06F" transform="translate(126,202)"/>
<path d="M0 0 C3.75376152 1.25125384 4.24073289 2.5652404 6 6 C6 6.66 6 7.32 6 8 C5.34 8 4.68 8 4 8 C0 2.58823529 0 2.58823529 0 0 Z " fill="#DEE0E4" transform="translate(88,131)"/>
<path d="M0 0 C0.99 0.33 1.98 0.66 3 1 C-0.465 3.97 -0.465 3.97 -4 7 C-4.66 6.34 -5.32 5.68 -6 5 C-5.195625 4.54625 -4.39125 4.0925 -3.5625 3.625 C-0.91143428 2.25274335 -0.91143428 2.25274335 0 0 Z " fill="#D8AD65" transform="translate(197,93)"/>
<path d="M0 0 C0.33 0 0.66 0 1 0 C1 2.64 1 5.28 1 8 C0.01 8 -0.98 8 -2 8 C-1.47731534 5.23723823 -0.89130413 2.6739124 0 0 Z " fill="#AB7D40" transform="translate(319,79)"/>
<path d="M0 0 C0.33 0 0.66 0 1 0 C1.2226746 1.43534841 1.42761906 2.87345525 1.625 4.3125 C1.74101562 5.11300781 1.85703125 5.91351563 1.9765625 6.73828125 C2 9 2 9 0 12 C-1.53166168 7.91556885 -0.63081652 4.20544343 0 0 Z " fill="#D0D0D6" transform="translate(188,381)"/>
<path d="M0 0 C-0.33 0.66 -0.66 1.32 -1 2 C-3.97 2 -6.94 2 -10 2 C-3.75 -1.125 -3.75 -1.125 0 0 Z " fill="#F7EDDA" transform="translate(170,222)"/>
<path d="M0 0 C0.33 0.66 0.66 1.32 1 2 C1.66 2 2.32 2 3 2 C3.625 4.3125 3.625 4.3125 4 7 C3.01 8.485 3.01 8.485 2 10 C1.34 6.7 0.68 3.4 0 0 Z " fill="#E7C890" transform="translate(141,125)"/>
</svg>
